<svg width="616" height="624" viewBox="0 0 616 624" fill="none" xmlns="http://www.w3.org/2000/svg">
<path fill-rule="evenodd" clip-rule="evenodd" d="M328.929 20.3282C383.753 6.60719 450.998 -16.7373 495.031 18.6879C540.008 54.8717 511.075 130.575 532.562 184.152C552.515 233.905 615.769 264.703 615.192 318.306C614.614 372.04 562.052 408.208 529.69 451.108C494.734 497.446 468.467 551.548 417.834 579.929C360.317 612.17 293.253 631.054 228.234 620.083C159.606 608.503 93.082 573.416 50.9445 518.023C9.77903 463.907 -7.507 391.182 3.01147 324.007C12.5173 263.3 64.0811 220.854 104.696 174.744C134.849 140.511 171.285 116.183 208.856 90.3103C247.8 63.4926 283.06 31.8081 328.929 20.3282Z" fill="#FFA500"/>
</svg>
