<svg width="145" height="145" viewBox="0 0 145 145" fill="none" xmlns="http://www.w3.org/2000/svg">
<path d="M72.5 9.0625C37.4678 9.0625 9.0625 37.4678 9.0625 72.5C9.0625 107.532 37.4678 135.938 72.5 135.938C107.532 135.938 135.938 107.532 135.938 72.5C135.938 37.4678 107.532 9.0625 72.5 9.0625ZM97.4927 91.9985L93.4429 97.521C93.3548 97.6413 93.2438 97.7429 93.1163 97.8201C92.9888 97.8974 92.8473 97.9486 92.6999 97.971C92.5526 97.9934 92.4022 97.9864 92.2575 97.9505C92.1129 97.9146 91.9767 97.8504 91.8569 97.7617L68.436 80.6846C68.2901 80.5798 68.1715 80.4415 68.0902 80.2813C68.0089 80.1211 67.9672 79.9438 67.9688 79.7642V40.7812C67.9688 40.1582 68.4785 39.6484 69.1016 39.6484H75.9126C76.5356 39.6484 77.0454 40.1582 77.0454 40.7812V75.8276L97.2378 90.4268C97.7476 90.7808 97.8608 91.4888 97.4927 91.9985Z" fill="white"/>
</svg>
